<svg width="40" height="40" xmlns="http://www.w3.org/2000/svg">
 <g id="Layer_1">
  <title>Layer 1</title>
  <ellipse fill="#ffffff" stroke="#ffffff" cx="53.43284" cy="22.50747" id="svg_31"/>
  <g id="svg_16">
   <path fill="#f20103" opacity="undefined" d="m20.49258,34.35679c-4.06588,0 -6.51402,1.45386 -9.12791,-0.37573c-2.61389,-1.82959 -6.08313,-7.43521 -6.08313,-10.7173c0,-6.56418 6.58671,-11.88116 14.71845,-11.88116c8.13174,0 14.71845,5.31699 14.71845,11.88116c0,3.28208 -3.88794,9.82362 -7.51163,11.11137c-3.62369,1.28774 -2.64837,-0.01834 -6.71424,-0.01834l0,0.00001z" id="svg_1" stroke="#000000"/>
   <path fill="#ffffff" stroke="#ffffff" opacity="undefined" d="m25.61547,15.79223c-1.84907,-0.70932 -6.6489,-1.48854 -1.57587,-1.13717c5.07303,0.35137 -0.96885,-0.12867 2.06243,0.22599c3.03128,0.35466 4.53782,3.57147 4.53782,4.81246c0,1.24099 -3.1753,-3.19195 -5.02437,-3.90127l-0.00001,0z" id="svg_29"/>
   <ellipse fill="#ffffff" stroke="#ffffff" cx="31.5265" cy="21.70325" id="svg_30" rx="0.65022" ry="0.70932"/>
   <path fill="#5c2005" stroke="#000000" opacity="undefined" d="m18.19935,7.71693l1.02094,-0.20419l1.42931,0.34032l0.13613,2.10994l-0.5445,2.65444l-0.40837,0.13613l-0.68062,-2.85862l-0.95288,-2.178l-0.00001,-0.00001z" id="svg_35" stroke-width="0.5"/>
   <path id="svg_5" d="m13.4092,34.10064c-1.06083,-0.19704 -3.01974,-1.62553 -4.65143,-3.953c-0.81585,-1.16374 -1.54988,-2.55221 -1.95044,-3.68054c-0.40055,-1.12833 -1.43082,-5.37072 0.05048,-2.11965c0.74065,1.62553 1.4549,3.66922 2.82138,4.99893c1.36648,1.32971 0.72523,2.97878 5.94664,2.38986c5.22141,-0.58893 -0.09498,2.75848 -2.21664,2.36441z" opacity="undefined" stroke="#c80100" fill="#c80100"/>
   <path id="svg_11" d="m25.23126,34.10064l-4.01457,-0.68962l-6.34204,0.54184l0.65267,-2.11812c0,-2.76338 9.51888,0.49259 10.6891,0.49259c0.58512,0 3.10962,-1.70065 4.79821,-3.65929c1.6886,-1.95864 2.93538,-4.96341 2.93538,-4.41912c0,0.54429 -1.099,2.90871 -3.32944,6.22073c-2.23044,3.31202 -4.8042,3.63098 -5.38932,3.63098l0.00001,0.00001z" opacity="undefined" stroke="#c80100" fill="#c80100"/>
   <path id="svg_13" d="m12.82435,10.05137c-2.05348,-1.17758 -1.9523,-1.80763 -3.43977,-3.59472c-1.48747,-1.78709 3.24562,-1.92131 5.67097,-0.06198c2.42536,1.85934 2.01428,2.7373 3.87362,4.15252c1.85934,1.41522 -4.05133,0.68176 -6.10482,-0.49582z" opacity="undefined" stroke-width="0.2" stroke="#000000" fill="#08a308"/>
   <path id="svg_14" d="m19.23906,10.98104l-2.85098,-0.99165l-2.10725,-1.48747" opacity="undefined" stroke-width="0.2" stroke="#000000" fill="none"/>
  </g>
 </g>

</svg>